{
.appVersion = "895";
copyright = "Copyright 2016 Google Inc. All Rights Reserved.";
customParameters = (
{
name = description;
value = "Designed by Monotype design team.";
},
{
name = license;
value = "This Font Software is licensed under the SIL Open Font License, Version 1.1. This Font Software is distributed on an \"AS IS\" BASIS, WITHOUT WARRANTIES OR CONDITIONS OF ANY KIND, either express or implied. See the SIL Open Font License for the specific language, permissions and limitations governing your use of this Font Software.";
},
{
name = licenseURL;
value = "http://scripts.sil.org/OFL";
},
{
name = vendorID;
value = GOOG;
},
{
name = trademark;
value = "Noto is a trademark of Google Inc.";
},
{
name = fsType;
value = (
);
},
{
name = panose;
value = (
2,
11,
5,
2,
4,
5,
4,
2,
2,
4
);
},
{
name = unicodeRanges;
value = (
79
);
},
{
name = codePageRanges;
value = (
1252
);
}
);
date = "2016-11-10 14:49:53 +0000";
designer = "Monotype Design Team";
designerURL = "http://www.monotype.com/studio";
familyName = "Noto Sans Runic";
fontMaster = (
{
ascender = 2189;
capHeight = 1462;
customParameters = (
{
name = typoAscender;
value = 2189;
},
{
name = typoDescender;
value = -600;
},
{
name = typoLineGap;
value = 0;
},
{
name = winAscent;
value = 2189;
},
{
name = winDescent;
value = 600;
},
{
name = hheaAscender;
value = 2189;
},
{
name = hheaDescender;
value = -600;
},
{
name = underlinePosition;
value = -205;
},
{
name = underlineThickness;
value = 102;
}
);
descender = -600;
id = "022D8624-EE6A-4706-99F1-8B0D7C62E556";
weightValue = 400;
widthValue = 5;
xHeight = 1098;
}
);
glyphs = (
{
glyphname = .notdef;
lastChange = "2016-11-10 14:49:37 +0000";
layers = (
{
layerId = "022D8624-EE6A-4706-99F1-8B0D7C62E556";
paths = (
{
closed = 1;
nodes = (
"1034 0 LINE",
"1034 1462 LINE",
"193 1462 LINE",
"193 0 LINE"
);
},
{
closed = 1;
nodes = (
"297 1358 LINE",
"930 1358 LINE",
"930 104 LINE",
"297 104 LINE"
);
}
);
width = 1229;
}
);
note = .notdef;
},
{
glyphname = uni16A0;
lastChange = "2016-11-10 14:49:34 +0000";
layers = (
{
layerId = "022D8624-EE6A-4706-99F1-8B0D7C62E556";
paths = (
{
closed = 1;
nodes = (
"383 0 LINE",
"383 510 LINE",
"570 510 OFFCURVE",
"741 549 OFFCURVE",
"886 622 CURVE SMOOTH",
"1031 695 OFFCURVE",
"1150 804 OFFCURVE",
"1234 941 CURVE SMOOTH",
"1317 1078 OFFCURVE",
"1364 1247 OFFCURVE",
"1364 1440 CURVE SMOOTH",
"1364 1462 LINE",
"1169 1462 LINE",
"1169 1442 LINE SMOOTH",
"1169 1285 OFFCURVE",
"1130 1147 OFFCURVE",
"1062 1033 CURVE SMOOTH",
"993 919 OFFCURVE",
"896 829 OFFCURVE",
"780 768 CURVE SMOOTH",
"663 707 OFFCURVE",
"527 674 OFFCURVE",
"383 674 CURVE",
"383 901 LINE",
"524 901 OFFCURVE",
"657 961 OFFCURVE",
"754 1058 CURVE SMOOTH",
"850 1155 OFFCURVE",
"911 1291 OFFCURVE",
"911 1440 CURVE SMOOTH",
"911 1462 LINE",
"717 1462 LINE",
"717 1442 LINE SMOOTH",
"717 1343 OFFCURVE",
"685 1250 OFFCURVE",
"627 1180 CURVE SMOOTH",
"569 1110 OFFCURVE",
"484 1065 OFFCURVE",
"383 1065 CURVE",
"383 1462 LINE",
"199 1462 LINE",
"199 0 LINE"
);
}
);
width = 1395;
}
);
note = uni16A0;
unicode = 16A0;
},
{
glyphname = uni16A1;
lastChange = "2016-11-10 14:49:34 +0000";
layers = (
{
layerId = "022D8624-EE6A-4706-99F1-8B0D7C62E556";
paths = (
{
closed = 1;
nodes = (
"383 0 LINE",
"383 510 LINE",
"688 510 OFFCURVE",
"946 597 OFFCURVE",
"1128 757 CURVE SMOOTH",
"1310 917 OFFCURVE",
"1415 1149 OFFCURVE",
"1415 1440 CURVE SMOOTH",
"1415 1462 LINE",
"1221 1462 LINE",
"1221 1442 LINE SMOOTH",
"1221 1206 OFFCURVE",
"1131 1013 OFFCURVE",
"982 881 CURVE SMOOTH",
"833 748 OFFCURVE",
"623 674 OFFCURVE",
"383 674 CURVE",
"383 901 LINE",
"550 901 OFFCURVE",
"695 961 OFFCURVE",
"799 1058 CURVE SMOOTH",
"902 1155 OFFCURVE",
"963 1291 OFFCURVE",
"963 1440 CURVE SMOOTH",
"963 1462 LINE",
"768 1462 LINE",
"768 1442 LINE SMOOTH",
"768 1343 OFFCURVE",
"735 1250 OFFCURVE",
"671 1180 CURVE SMOOTH",
"606 1110 OFFCURVE",
"510 1065 OFFCURVE",
"383 1065 CURVE",
"383 1462 LINE",
"199 1462 LINE",
"199 0 LINE"
);
},
{
closed = 1;
nodes = (
"583 1255 OFFCURVE",
"608 1264 OFFCURVE",
"628 1283 CURVE SMOOTH",
"647 1302 OFFCURVE",
"659 1331 OFFCURVE",
"659 1370 CURVE SMOOTH",
"659 1410 OFFCURVE",
"647 1438 OFFCURVE",
"628 1458 CURVE",
"608 1477 OFFCURVE",
"583 1485 OFFCURVE",
"555 1485 CURVE SMOOTH",
"495 1485 OFFCURVE",
"449 1450 OFFCURVE",
"449 1370 CURVE SMOOTH",
"449 1291 OFFCURVE",
"495 1255 OFFCURVE",
"555 1255 CURVE SMOOTH"
);
}
);
width = 1446;
}
);
note = uni16A1;
unicode = 16A1;
},
{
glyphname = uni16A2;
lastChange = "2016-11-10 14:49:34 +0000";
layers = (
{
layerId = "022D8624-EE6A-4706-99F1-8B0D7C62E556";
paths = (
{
closed = 1;
nodes = (
"383 0 LINE",
"383 1268 LINE",
"560 1268 OFFCURVE",
"723 1228 OFFCURVE",
"841 1140 CURVE SMOOTH",
"959 1052 OFFCURVE",
"1032 915 OFFCURVE",
"1032 723 CURVE SMOOTH",
"1032 0 LINE",
"1223 0 LINE",
"1223 733 LINE SMOOTH",
"1223 906 OFFCURVE",
"1176 1046 OFFCURVE",
"1098 1154 CURVE SMOOTH",
"1020 1262 OFFCURVE",
"911 1339 OFFCURVE",
"788 1389 CURVE SMOOTH",
"665 1439 OFFCURVE",
"528 1462 OFFCURVE",
"393 1462 CURVE SMOOTH",
"199 1462 LINE",
"199 0 LINE"
);
}
);
width = 1401;
}
);
note = uni16A2;
unicode = 16A2;
},
{
glyphname = uni16A3;
lastChange = "2016-11-10 14:49:34 +0000";
layers = (
{
layerId = "022D8624-EE6A-4706-99F1-8B0D7C62E556";
paths = (
{
closed = 1;
nodes = (
"383 0 LINE",
"383 985 LINE SMOOTH",
"383 1004 OFFCURVE",
"382 1026 OFFCURVE",
"381 1053 CURVE SMOOTH",
"378 1105 OFFCURVE",
"375 1157 OFFCURVE",
"371 1217 CURVE",
"1012 0 LINE",
"1227 0 LINE",
"426 1462 LINE",
"199 1462 LINE",
"199 0 LINE"
);
},
{
closed = 1;
nodes = (
"709 0 LINE",
"709 377 LINE",
"547 377 LINE",
"547 0 LINE"
);
}
);
width = 1227;
}
);
note = uni16A3;
unicode = 16A3;
},
{
glyphname = uni16A4;
lastChange = "2016-11-10 14:49:34 +0000";
layers = (
{
layerId = "022D8624-EE6A-4706-99F1-8B0D7C62E556";
paths = (
{
closed = 1;
nodes = (
"383 0 LINE",
"383 1268 LINE",
"560 1268 OFFCURVE",
"723 1228 OFFCURVE",
"841 1140 CURVE SMOOTH",
"959 1052 OFFCURVE",
"1032 915 OFFCURVE",
"1032 723 CURVE SMOOTH",
"1032 0 LINE",
"1223 0 LINE",
"1223 733 LINE SMOOTH",
"1223 906 OFFCURVE",
"1176 1046 OFFCURVE",
"1098 1154 CURVE SMOOTH",
"1020 1262 OFFCURVE",
"911 1339 OFFCURVE",
"788 1389 CURVE SMOOTH",
"665 1439 OFFCURVE",
"528 1462 OFFCURVE",
"393 1462 CURVE SMOOTH",
"199 1462 LINE",
"199 0 LINE"
);
},
{
closed = 1;
nodes = (
"724 578 OFFCURVE",
"750 587 OFFCURVE",
"770 606 CURVE SMOOTH",
"789 625 OFFCURVE",
"801 653 OFFCURVE",
"801 692 CURVE SMOOTH",
"801 772 OFFCURVE",
"752 807 OFFCURVE",
"696 807 CURVE SMOOTH",
"636 807 OFFCURVE",
"590 772 OFFCURVE",
"590 692 CURVE SMOOTH",
"590 613 OFFCURVE",
"636 578 OFFCURVE",
"696 578 CURVE SMOOTH"
);
}
);
width = 1401;
}
);
note = uni16A4;
unicode = 16A4;
},
{
glyphname = uni16A5;
lastChange = "2016-11-10 14:49:34 +0000";
layers = (
{
layerId = "022D8624-EE6A-4706-99F1-8B0D7C62E556";
paths = (
{
closed = 1;
nodes = (
"383 0 LINE",
"383 707 LINE",
"451 707 OFFCURVE",
"510 686 OFFCURVE",
"554 634 CURVE SMOOTH",
"597 582 OFFCURVE",
"623 498 OFFCURVE",
"623 373 CURVE SMOOTH",
"623 0 LINE",
"803 0 LINE",
"803 406 LINE SMOOTH",
"803 570 OFFCURVE",
"755 682 OFFCURVE",
"679 754 CURVE SMOOTH",
"602 825 OFFCURVE",
"496 854 OFFCURVE",
"383 854 CURVE",
"383 1268 LINE",
"560 1268 OFFCURVE",
"725 1228 OFFCURVE",
"846 1140 CURVE SMOOTH",
"966 1052 OFFCURVE",
"1042 915 OFFCURVE",
"1042 723 CURVE SMOOTH",
"1042 0 LINE",
"1223 0 LINE",
"1223 733 LINE SMOOTH",
"1223 906 OFFCURVE",
"1176 1046 OFFCURVE",
"1098 1154 CURVE SMOOTH",
"1020 1262 OFFCURVE",
"911 1339 OFFCURVE",
"788 1389 CURVE SMOOTH",
"665 1439 OFFCURVE",
"528 1462 OFFCURVE",
"393 1462 CURVE SMOOTH",
"199 1462 LINE",
"199 0 LINE"
);
}
);
width = 1401;
}
);
note = uni16A5;
unicode = 16A5;
},
{
glyphname = uni16A6;
lastChange = "2016-11-10 14:49:34 +0000";
layers = (
{
layerId = "022D8624-EE6A-4706-99F1-8B0D7C62E556";
paths = (
{
closed = 1;
nodes = (
"373 0 LINE",
"373 180 LINE",
"474 191 OFFCURVE",
"575 211 OFFCURVE",
"664 248 CURVE SMOOTH",
"752 285 OFFCURVE",
"829 340 OFFCURVE",
"885 421 CURVE SMOOTH",
"940 502 OFFCURVE",
"973 609 OFFCURVE",
"973 752 CURVE SMOOTH",
"973 916 OFFCURVE",
"920 1037 OFFCURVE",
"819 1122 CURVE SMOOTH",
"718 1207 OFFCURVE",
"568 1258 OFFCURVE",
"373 1282 CURVE",
"373 1462 LINE",
"199 1462 LINE",
"199 0 LINE"
);
},
{
closed = 1;
nodes = (
"373 1118 LINE",
"510 1102 OFFCURVE",
"611 1070 OFFCURVE",
"678 1011 CURVE SMOOTH",
"745 952 OFFCURVE",
"778 866 OFFCURVE",
"778 745 CURVE SMOOTH",
"778 596 OFFCURVE",
"743 504 OFFCURVE",
"675 445 CURVE SMOOTH",
"606 385 OFFCURVE",
"505 357 OFFCURVE",
"373 336 CURVE"
);
}
);
width = 1075;
}
);
note = uni16A6;
unicode = 16A6;
},
{
glyphname = uni16A7;
lastChange = "2016-11-10 14:49:34 +0000";
layers = (
{
layerId = "022D8624-EE6A-4706-99F1-8B0D7C62E556";
paths = (
{
closed = 1;
nodes = (
"373 0 LINE",
"373 180 LINE",
"474 191 OFFCURVE",
"575 211 OFFCURVE",
"664 248 CURVE SMOOTH",
"752 285 OFFCURVE",
"829 340 OFFCURVE",
"885 421 CURVE SMOOTH",
"940 502 OFFCURVE",
"973 609 OFFCURVE",
"973 752 CURVE SMOOTH",
"973 916 OFFCURVE",
"920 1037 OFFCURVE",
"819 1122 CURVE SMOOTH",
"718 1207 OFFCURVE",
"568 1258 OFFCURVE",
"373 1282 CURVE",
"373 1462 LINE",
"199 1462 LINE",
"199 0 LINE"
);
},
{
closed = 1;
nodes = (
"593 621 OFFCURVE",
"619 630 OFFCURVE",
"639 649 CURVE SMOOTH",
"658 668 OFFCURVE",
"670 696 OFFCURVE",
"670 735 CURVE SMOOTH",
"670 815 OFFCURVE",
"621 850 OFFCURVE",
"565 850 CURVE SMOOTH",
"505 850 OFFCURVE",
"459 815 OFFCURVE",
"459 735 CURVE SMOOTH",
"459 656 OFFCURVE",
"505 621 OFFCURVE",
"565 621 CURVE SMOOTH"
);
},
{
closed = 1;
nodes = (
"373 1118 LINE",
"510 1102 OFFCURVE",
"611 1070 OFFCURVE",
"678 1011 CURVE SMOOTH",
"745 952 OFFCURVE",
"778 866 OFFCURVE",
"778 745 CURVE SMOOTH",
"778 596 OFFCURVE",
"743 504 OFFCURVE",
"675 445 CURVE SMOOTH",
"606 385 OFFCURVE",
"505 357 OFFCURVE",
"373 336 CURVE"
);
}
);
width = 1075;
}
);
note = uni16A7;
unicode = 16A7;
},
{
glyphname = uni16A8;
lastChange = "2016-11-10 14:40:32 +0000";
layers = (
{
layerId = "022D8624-EE6A-4706-99F1-8B0D7C62E556";
paths = (
{
closed = 1;
nodes = (
"383 0 LINE",
"383 965 LINE",
"655 807 LINE",
"727 930 LINE",
"383 1133 LINE",
"383 1294 LINE",
"655 1137 LINE",
"727 1260 LINE",
"383 1462 LINE",
"199 1462 LINE",
"199 0 LINE"
);
}
);
width = 811;
}
);
note = uni16A8;
unicode = 16A8;
},
{
glyphname = uni16A9;
lastChange = "2016-11-10 14:49:34 +0000";
layers = (
{
layerId = "022D8624-EE6A-4706-99F1-8B0D7C62E556";
paths = (
{
closed = 1;
nodes = (
"383 0 LINE",
"383 963 LINE",
"784 729 LINE",
"1122 965 LINE",
"1122 1133 LINE",
"782 895 LINE",
"383 1133 LINE",
"383 1294 LINE",
"784 1057 LINE",
"1122 1294 LINE",
"1122 1462 LINE",
"782 1225 LINE",
"383 1462 LINE",
"199 1462 LINE",
"199 0 LINE"
);
}
);
width = 1206;
}
);
note = uni16A9;
unicode = 16A9;
},
{
glyphname = uni16AA;
lastChange = "2016-11-10 14:49:34 +0000";
layers = (
{
layerId = "022D8624-EE6A-4706-99F1-8B0D7C62E556";
paths = (
{
closed = 1;
nodes = (
"383 0 LINE",
"383 963 LINE",
"782 725 LINE",
"782 895 LINE",
"383 1133 LINE",
"383 1294 LINE",
"784 1057 LINE",
"1122 1294 LINE",
"1122 1462 LINE",
"782 1225 LINE",
"383 1462 LINE",
"199 1462 LINE",
"199 0 LINE"
);
}
);
width = 1206;
}
);
note = uni16AA;
unicode = 16AA;
},
{
glyphname = uni16AB;
lastChange = "2016-11-10 14:40:32 +0000";
layers = (
{
layerId = "022D8624-EE6A-4706-99F1-8B0D7C62E556";
paths = (
{
closed = 1;
nodes = (
"383 0 LINE",
"383 965 LINE",
"983 614 LINE",
"1055 737 LINE",
"383 1133 LINE",
"383 1294 LINE",
"983 944 LINE",
"1055 1067 LINE",
"383 1462 LINE",
"199 1462 LINE",
"199 0 LINE"
);
}
);
width = 1139;
}
);
note = uni16AB;
unicode = 16AB;
},
{
glyphname = uni16AC;
lastChange = "2016-11-10 14:49:34 +0000";
layers = (
{
layerId = "022D8624-EE6A-4706-99F1-8B0D7C62E556";
paths = (
{
closed = 1;
nodes = (
"608 0 LINE",
"608 463 LINE",
"879 305 LINE",
"950 428 LINE",
"608 631 LINE",
"608 793 LINE",
"879 635 LINE",
"950 758 LINE",
"608 961 LINE",
"608 1462 LINE",
"428 1462 LINE",
"428 1067 LINE",
"156 1229 LINE",
"82 1100 LINE",
"428 897 LINE",
"428 737 LINE",
"156 899 LINE",
"82 770 LINE",
"428 567 LINE",
"428 0 LINE"
);
}
);
width = 1034;
}
);
note = uni16AC;
unicode = 16AC;
},
{
glyphname = uni16AD;
lastChange = "2016-11-10 14:40:32 +0000";
layers = (
{
layerId = "022D8624-EE6A-4706-99F1-8B0D7C62E556";
paths = (
{
closed = 1;
nodes = (
"383 0 LINE",
"383 461 LINE",
"655 303 LINE",
"727 426 LINE",
"383 629 LINE",
"383 791 LINE",
"655 633 LINE",
"727 756 LINE",
"383 958 LINE",
"383 1462 LINE",
"199 1462 LINE",
"199 0 LINE"
);
}
);
width = 811;
}
);
note = uni16AD;
unicode = 16AD;
},
{
glyphname = uni16AE;
lastChange = "2016-11-10 14:49:34 +0000";
layers = (
{
layerId = "022D8624-EE6A-4706-99F1-8B0D7C62E556";
paths = (
{
closed = 1;
nodes = (
"623 0 LINE",
"623 1462 LINE",
"438 1462 LINE",
"438 973 LINE",
"82 782 LINE",
"156 659 LINE",
"438 811 LINE",
"438 643 LINE",
"82 453 LINE",
"156 330 LINE",
"438 481 LINE",
"438 0 LINE"
);
}
);
width = 823;
}
);
note = uni16AE;
unicode = 16AE;
},
{
glyphname = uni16AF;
lastChange = "2016-11-10 14:49:34 +0000";
layers = (
{
layerId = "022D8624-EE6A-4706-99F1-8B0D7C62E556";
paths = (
{
closed = 1;
nodes = (
"618 0 LINE",
"618 571 LINE",
"975 766 LINE",
"913 893 LINE",
"618 735 LINE",
"618 901 LINE",
"975 1096 LINE",
"913 1223 LINE",
"618 1065 LINE",
"618 1462 LINE",
"438 1462 LINE",
"438 973 LINE",
"82 782 LINE",
"156 659 LINE",
"438 811 LINE",
"438 643 LINE",
"82 453 LINE",
"156 330 LINE",
"438 481 LINE",
"438 0 LINE"
);
}
);
width = 1059;
}
);
note = uni16AF;
unicode = 16AF;
},
{
glyphname = uni16B0;
lastChange = "2016-11-10 14:49:34 +0000";
layers = (
{
layerId = "022D8624-EE6A-4706-99F1-8B0D7C62E556";
paths = (
{
closed = 1;
nodes = (
"618 0 LINE",
"618 901 LINE",
"979 1098 LINE",
"918 1225 LINE",
"618 1065 LINE",
"618 1462 LINE",
"438 1462 LINE",
"438 973 LINE",
"82 782 LINE",
"156 659 LINE",
"438 811 LINE",
"438 643 LINE",
"82 453 LINE",
"156 330 LINE",
"438 481 LINE",
"438 0 LINE"
);
}
);
width = 1063;
}
);
note = uni16B0;
unicode = 16B0;
},
{
glyphname = uni16B1;
lastChange = "2016-11-10 14:49:34 +0000";
layers = (
{
layerId = "022D8624-EE6A-4706-99F1-8B0D7C62E556";
paths = (
{
closed = 1;
nodes = (
"383 0 LINE",
"383 1253 LINE",
"698 1075 LINE",
"492 717 LINE",
"758 0 LINE",
"954 0 LINE",
"686 707 LINE",
"854 995 LINE",
"854 1196 LINE",
"383 1462 LINE",
"199 1462 LINE",
"199 0 LINE"
);
}
);
width = 1026;
}
);
note = uni16B1;
unicode = 16B1;
},
{
glyphname = uni16B2;
lastChange = "2016-11-10 14:49:34 +0000";
layers = (
{
layerId = "022D8624-EE6A-4706-99F1-8B0D7C62E556";
paths = (
{
closed = 1;
nodes = (
"481 614 LINE",
"334 770 LINE",
"334 782 LINE",
"483 926 LINE",
"483 1151 LINE",
"199 874 LINE",
"199 686 LINE",
"481 381 LINE"
);
}
);
width = 684;
}
);
note = uni16B2;
unicode = 16B2;
},
{
glyphname = uni16B3;
lastChange = "2016-11-10 14:40:32 +0000";
layers = (
{
layerId = "022D8624-EE6A-4706-99F1-8B0D7C62E556";
paths = (
{
closed = 1;
nodes = (
"383 0 LINE",
"383 483 LINE",
"690 0 LINE",
"911 0 LINE",
"383 754 LINE",
"383 1462 LINE",
"199 1462 LINE",
"199 0 LINE"
);
}
);
width = 911;
}
);
note = uni16B3;
unicode = 16B3;
},
{
glyphname = uni16B4;
lastChange = "2016-11-10 14:49:34 +0000";
layers = (
{
layerId = "022D8624-EE6A-4706-99F1-8B0D7C62E556";
paths = (
{
closed = 1;
nodes = (
"383 0 LINE",
"383 569 LINE",
"516 569 OFFCURVE",
"645 612 OFFCURVE",
"757 686 CURVE SMOOTH",
"868 760 OFFCURVE",
"962 865 OFFCURVE",
"1029 992 CURVE SMOOTH",
"1096 1119 OFFCURVE",
"1135 1266 OFFCURVE",
"1135 1425 CURVE SMOOTH",
"1135 1462 LINE",
"944 1462 LINE",
"944 1423 LINE SMOOTH",
"944 1302 OFFCURVE",
"919 1185 OFFCURVE",
"874 1082 CURVE SMOOTH",
"829 978 OFFCURVE",
"763 890 OFFCURVE",
"680 827 CURVE SMOOTH",
"596 764 OFFCURVE",
"496 727 OFFCURVE",
"383 727 CURVE",
"383 1462 LINE",
"199 1462 LINE",
"199 0 LINE"
);
}
);
width = 1165;
}
);
note = uni16B4;
unicode = 16B4;
},
{
glyphname = uni16B5;
lastChange = "2016-11-10 14:49:34 +0000";
layers = (
{
layerId = "022D8624-EE6A-4706-99F1-8B0D7C62E556";
paths = (
{
closed = 1;
nodes = (
"383 0 LINE",
"383 569 LINE",
"516 569 OFFCURVE",
"645 612 OFFCURVE",
"757 686 CURVE SMOOTH",
"868 760 OFFCURVE",
"962 865 OFFCURVE",
"1029 992 CURVE SMOOTH",
"1096 1119 OFFCURVE",
"1135 1266 OFFCURVE",
"1135 1425 CURVE SMOOTH",
"1135 1462 LINE",
"944 1462 LINE",
"944 1423 LINE SMOOTH",
"944 1302 OFFCURVE",
"919 1185 OFFCURVE",
"874 1082 CURVE SMOOTH",
"829 978 OFFCURVE",
"763 890 OFFCURVE",
"680 827 CURVE SMOOTH",
"596 764 OFFCURVE",
"496 727 OFFCURVE",
"383 727 CURVE",
"383 1462 LINE",
"199 1462 LINE",
"199 0 LINE"
);
},
{
closed = 1;
nodes = (
"671 1106 OFFCURVE",
"697 1115 OFFCURVE",
"717 1134 CURVE SMOOTH",
"736 1153 OFFCURVE",
"748 1182 OFFCURVE",
"748 1221 CURVE SMOOTH",
"748 1261 OFFCURVE",
"736 1289 OFFCURVE",
"717 1308 CURVE SMOOTH",
"697 1327 OFFCURVE",
"671 1335 OFFCURVE",
"643 1335 CURVE SMOOTH",
"584 1335 OFFCURVE",
"537 1300 OFFCURVE",
"537 1221 CURVE SMOOTH",
"537 1142 OFFCURVE",
"583 1106 OFFCURVE",
"643 1106 CURVE SMOOTH"
);
}
);
width = 1165;
}
);
note = uni16B5;
unicode = 16B5;
},
{
glyphname = uni16B6;
lastChange = "2016-11-10 14:40:32 +0000";
layers = (
{
layerId = "022D8624-EE6A-4706-99F1-8B0D7C62E556";
paths = (
{
closed = 1;
nodes = (
"424 0 LINE",
"424 442 LINE",
"473 463 OFFCURVE",
"510 507 OFFCURVE",
"526 578 CURVE",
"645 597 OFFCURVE",
"757 650 OFFCURVE",
"853 727 CURVE SMOOTH",
"949 803 OFFCURVE",
"1030 906 OFFCURVE",
"1087 1026 CURVE SMOOTH",
"1143 1145 OFFCURVE",
"1176 1280 OFFCURVE",
"1176 1425 CURVE SMOOTH",
"1176 1462 LINE",
"985 1462 LINE",
"985 1423 LINE SMOOTH",
"985 1259 OFFCURVE",
"940 1102 OFFCURVE",
"860 978 CURVE SMOOTH",
"779 854 OFFCURVE",
"663 764 OFFCURVE",
"520 735 CURVE",
"504 795 OFFCURVE",
"467 831 OFFCURVE",
"424 852 CURVE",
"424 1462 LINE",
"240 1462 LINE",
"240 852 LINE",
"180 823 OFFCURVE",
"137 760 OFFCURVE",
"137 647 CURVE SMOOTH",
"137 539 OFFCURVE",
"177 475 OFFCURVE",
"240 444 CURVE",
"240 0 LINE"
);
}
);
width = 1206;
}
);
note = uni16B6;
unicode = 16B6;
},
{
glyphname = uni16B7;
lastChange = "2016-11-10 14:49:34 +0000";
layers = (
{
layerId = "022D8624-EE6A-4706-99F1-8B0D7C62E556";
paths = (
{
closed = 1;
nodes = (
"203 0 LINE",
"596 635 LINE",
"983 0 LINE",
"1192 0 LINE",
"705 766 LINE",
"1157 1462 LINE",
"963 1462 LINE",
"602 889 LINE",
"244 1462 LINE",
"39 1462 LINE",
"494 762 LINE",
"8 0 LINE"
);
}
);
width = 1200;
}
);
note = uni16B7;
unicode = 16B7;
},
{
glyphname = uni16B8;
lastChange = "2016-11-10 14:49:34 +0000";
layers = (
{
layerId = "022D8624-EE6A-4706-99F1-8B0D7C62E556";
paths = (
{
closed = 1;
nodes = (
"260 0 LINE",
"653 635 LINE",
"1057 0 LINE",
"1237 0 LINE",
"1026 332 LINE",
"1231 715 LINE",
"1231 739 LINE",
"1010 1159 LINE",
"1206 1462 LINE",
"1018 1462 LINE",
"659 889 LINE",
"301 1462 LINE",
"113 1462 LINE",
"309 1159 LINE",
"88 739 LINE",
"88 715 LINE",
"293 332 LINE",
"82 0 LINE"
);
},
{
closed = 1;
nodes = (
"246 723 LINE",
"246 731 LINE",
"391 1012 LINE",
"551 762 LINE",
"375 483 LINE"
);
},
{
closed = 1;
nodes = (
"762 766 LINE",
"922 1018 LINE",
"1073 731 LINE",
"1073 723 LINE",
"940 471 LINE"
);
}
);
width = 1319;
}
);
note = uni16B8;
unicode = 16B8;
},
{
glyphname = uni16B9;
lastChange = "2016-11-10 14:49:34 +0000";
layers = (
{
layerId = "022D8624-EE6A-4706-99F1-8B0D7C62E556";
paths = (
{
closed = 1;
nodes = (
"383 0 LINE",
"383 467 LINE",
"827 893 LINE",
"827 1065 LINE",
"383 1462 LINE",
"199 1462 LINE",
"199 0 LINE"
);
},
{
closed = 1;
nodes = (
"383 1257 LINE",
"676 981 LINE",
"383 688 LINE"
);
}
);
width = 899;
}
);
note = uni16B9;
unicode = 16B9;
},
{
glyphname = uni16BA;
lastChange = "2016-11-10 14:49:34 +0000";
layers = (
{
layerId = "022D8624-EE6A-4706-99F1-8B0D7C62E556";
paths = (
{
closed = 1;
nodes = (
"383 0 LINE",
"383 852 LINE",
"1112 428 LINE",
"1112 0 LINE",
"1296 0 LINE",
"1296 1462 LINE",
"1112 1462 LINE",
"1112 612 LINE",
"383 1044 LINE",
"383 1462 LINE",
"199 1462 LINE",
"199 0 LINE"
);
}
);
width = 1497;
}
);
note = uni16BA;
unicode = 16BA;
},
{
glyphname = uni16BB;
lastChange = "2016-11-10 14:49:34 +0000";
layers = (
{
layerId = "022D8624-EE6A-4706-99F1-8B0D7C62E556";
paths = (
{
closed = 1;
nodes = (
"383 0 LINE",
"383 664 LINE",
"1112 240 LINE",
"1112 0 LINE",
"1296 0 LINE",
"1296 1462 LINE",
"1112 1462 LINE",
"1112 805 LINE",
"383 1237 LINE",
"383 1462 LINE",
"199 1462 LINE",
"199 0 LINE"
);
},
{
closed = 1;
nodes = (
"383 846 LINE",
"383 1055 LINE",
"1112 631 LINE",
"1112 414 LINE"
);
}
);
width = 1497;
}
);
note = uni16BB;
unicode = 16BB;
},
{
glyphname = uni16BC;
lastChange = "2016-11-10 14:49:34 +0000";
layers = (
{
layerId = "022D8624-EE6A-4706-99F1-8B0D7C62E556";
paths = (
{
closed = 1;
nodes = (
"608 0 LINE",
"608 301 LINE SMOOTH",
"608 358 OFFCURVE",
"606 426 OFFCURVE",
"603 481 CURVE SMOOTH",
"601 513 OFFCURVE",
"599 544 OFFCURVE",
"598 575 CURVE",
"885 383 LINE",
"967 514 LINE",
"664 717 LINE",
"967 922 LINE",
"885 1055 LINE",
"608 868 LINE",
"608 1462 LINE",
"438 1462 LINE",
"438 870 LINE",
"164 1055 LINE",
"82 922 LINE",
"385 717 LINE",
"82 514 LINE",
"164 383 LINE",
"451 575 LINE",
"448 544 OFFCURVE",
"446 513 OFFCURVE",
"444 481 CURVE SMOOTH",
"441 426 OFFCURVE",
"438 358 OFFCURVE",
"438 301 CURVE SMOOTH",
"438 0 LINE"
);
}
);
width = 1051;
}
);
note = uni16BC;
unicode = 16BC;
},
{
glyphname = uni16BD;
lastChange = "2016-11-10 14:40:32 +0000";
layers = (
{
layerId = "022D8624-EE6A-4706-99F1-8B0D7C62E556";
paths = (
{
closed = 1;
nodes = (
"424 0 LINE",
"424 553 LINE",
"488 582 OFFCURVE",
"532 646 OFFCURVE",
"532 758 CURVE SMOOTH",
"532 870 OFFCURVE",
"487 934 OFFCURVE",
"424 963 CURVE",
"424 1462 LINE",
"240 1462 LINE",
"240 963 LINE",
"180 934 OFFCURVE",
"137 871 OFFCURVE",
"137 758 CURVE SMOOTH",
"137 649 OFFCURVE",
"177 586 OFFCURVE",
"240 555 CURVE",
"240 0 LINE"
);
}
);
width = 670;
}
);
note = uni16BD;
unicode = 16BD;
},
{
glyphname = uni16BE;
lastChange = "2016-11-10 14:49:34 +0000";
layers = (
{
layerId = "022D8624-EE6A-4706-99F1-8B0D7C62E556";
paths = (
{
closed = 1;
nodes = (
"612 0 LINE",
"612 606 LINE",
"885 449 LINE",
"956 571 LINE",
"612 774 LINE",
"612 1462 LINE",
"428 1462 LINE",
"428 883 LINE",
"156 1044 LINE",
"82 915 LINE",
"428 713 LINE",
"428 0 LINE"
);
}
);
width = 1040;
}
);
note = uni16BE;
unicode = 16BE;
},
{
glyphname = uni16BF;
lastChange = "2016-11-10 14:40:32 +0000";
layers = (
{
layerId = "022D8624-EE6A-4706-99F1-8B0D7C62E556";
paths = (
{
closed = 1;
nodes = (
"383 0 LINE",
"383 606 LINE",
"655 449 LINE",
"727 571 LINE",
"383 774 LINE",
"383 1462 LINE",
"199 1462 LINE",
"199 0 LINE"
);
}
);
width = 811;
}
);
note = uni16BF;
unicode = 16BF;
},
{
glyphname = uni16C0;
lastChange = "2016-11-10 14:49:34 +0000";
layers = (
{
layerId = "022D8624-EE6A-4706-99F1-8B0D7C62E556";
paths = (
{
closed = 1;
nodes = (
"612 0 LINE",
"612 553 LINE",
"628 558 OFFCURVE",
"642 568 OFFCURVE",
"655 582 CURVE",
"885 449 LINE",
"956 571 LINE",
"717 713 LINE",
"720 728 OFFCURVE",
"721 741 OFFCURVE",
"721 758 CURVE SMOOTH",
"721 871 OFFCURVE",
"676 934 OFFCURVE",
"612 963 CURVE",
"612 1462 LINE",
"428 1462 LINE",
"428 963 LINE",
"405 952 OFFCURVE",
"387 938 OFFCURVE",
"371 918 CURVE",
"156 1044 LINE",
"82 915 LINE",
"326 774 LINE",
"326 758 LINE SMOOTH",
"326 649 OFFCURVE",
"367 586 OFFCURVE",
"428 555 CURVE",
"428 0 LINE"
);
}
);
width = 1040;
}
);
note = uni16C0;
unicode = 16C0;
},
{
glyphname = uni16C1;
lastChange = "2016-11-10 14:40:32 +0000";
layers = (
{
layerId = "022D8624-EE6A-4706-99F1-8B0D7C62E556";
paths = (
{
closed = 1;
nodes = (
"385 0 LINE",
"385 1462 LINE",
"197 1462 LINE",
"197 0 LINE"
);
}
);
width = 584;
}
);
note = uni16C1;
unicode = 16C1;
},
{
glyphname = uni16C2;
lastChange = "2016-11-10 14:40:32 +0000";
layers = (
{
layerId = "022D8624-EE6A-4706-99F1-8B0D7C62E556";
paths = (
{
closed = 1;
nodes = (
"424 0 LINE",
"424 553 LINE",
"488 582 OFFCURVE",
"532 646 OFFCURVE",
"532 758 CURVE SMOOTH",
"532 870 OFFCURVE",
"487 934 OFFCURVE",
"424 963 CURVE",
"424 1462 LINE",
"240 1462 LINE",
"240 963 LINE",
"180 934 OFFCURVE",
"137 871 OFFCURVE",
"137 758 CURVE SMOOTH",
"137 649 OFFCURVE",
"177 586 OFFCURVE",
"240 555 CURVE",
"240 0 LINE"
);
}
);
width = 670;
}
);
note = uni16C2;
unicode = 16C2;
},
{
glyphname = uni16C3;
lastChange = "2016-11-10 14:49:34 +0000";
layers = (
{
layerId = "022D8624-EE6A-4706-99F1-8B0D7C62E556";
paths = (
{
closed = 1;
nodes = (
"842 774 LINE",
"842 963 LINE",
"688 1178 LINE",
"547 1071 LINE",
"700 858 LINE",
"700 846 LINE",
"557 702 LINE",
"557 498 LINE"
);
},
{
closed = 1;
nodes = (
"494 911 LINE",
"340 1124 LINE",
"340 1137 LINE",
"483 1280 LINE",
"483 1485 LINE",
"199 1208 LINE",
"199 1020 LINE",
"352 805 LINE"
);
}
);
width = 1049;
}
);
note = uni16C3;
unicode = 16C3;
},
{
glyphname = uni16C4;
lastChange = "2016-11-10 14:49:34 +0000";
layers = (
{
layerId = "022D8624-EE6A-4706-99F1-8B0D7C62E556";
paths = (
{
closed = 1;
nodes = (
"592 0 LINE",
"592 383 LINE",
"895 655 LINE",
"895 827 LINE",
"592 1073 LINE",
"592 1462 LINE",
"408 1462 LINE",
"408 1073 LINE",
"102 827 LINE",
"102 662 LINE",
"403 387 LINE",
"403 0 LINE"
);
},
{
closed = 1;
nodes = (
"236 745 LINE",
"408 883 LINE",
"408 590 LINE"
);
},
{
closed = 1;
nodes = (
"592 883 LINE",
"762 745 LINE",
"592 590 LINE"
);
}
);
width = 997;
}
);
note = uni16C4;
unicode = 16C4;
},
{
glyphname = uni16C5;
lastChange = "2016-11-10 14:49:34 +0000";
layers = (
{
layerId = "022D8624-EE6A-4706-99F1-8B0D7C62E556";
paths = (
{
closed = 1;
nodes = (
"623 0 LINE",
"623 721 LINE",
"979 915 LINE",
"918 1042 LINE",
"623 885 LINE",
"623 1462 LINE",
"438 1462 LINE",
"438 791 LINE",
"82 600 LINE",
"156 477 LINE",
"438 629 LINE",
"438 0 LINE"
);
}
);
width = 1063;
}
);
note = uni16C5;
unicode = 16C5;
},
{
glyphname = uni16C6;
lastChange = "2016-11-10 14:49:34 +0000";
layers = (
{
layerId = "022D8624-EE6A-4706-99F1-8B0D7C62E556";
paths = (
{
closed = 1;
nodes = (
"623 0 LINE",
"623 1462 LINE",
"438 1462 LINE",
"438 791 LINE",
"82 600 LINE",
"156 477 LINE",
"438 629 LINE",
"438 0 LINE"
);
}
);
width = 823;
}
);
note = uni16C6;
unicode = 16C6;
},
{
glyphname = uni16C7;
lastChange = "2016-11-10 14:49:34 +0000";
layers = (
{
layerId = "022D8624-EE6A-4706-99F1-8B0D7C62E556";
paths = (
{
closed = 1;
nodes = (
"612 0 LINE",
"612 1294 LINE",
"885 1137 LINE",
"956 1260 LINE",
"612 1462 LINE",
"428 1462 LINE",
"428 170 LINE",
"156 332 LINE",
"82 203 LINE",
"428 0 LINE"
);
}
);
width = 1040;
}
);
note = uni16C7;
unicode = 16C7;
},
{
glyphname = uni16C8;
lastChange = "2016-11-10 14:49:34 +0000";
layers = (
{
layerId = "022D8624-EE6A-4706-99F1-8B0D7C62E556";
paths = (
{
closed = 1;
nodes = (
"383 0 LINE",
"639 238 LINE",
"918 0 LINE",
"918 195 LINE",
"641 432 LINE",
"383 199 LINE",
"383 1257 LINE",
"641 1030 LINE",
"918 1268 LINE",
"918 1462 LINE",
"639 1225 LINE",
"383 1462 LINE",
"199 1462 LINE",
"199 0 LINE"
);
}
);
width = 940;
}
);
note = uni16C8;
unicode = 16C8;
},
{
glyphname = uni16C9;
lastChange = "2016-11-10 14:49:34 +0000";
layers = (
{
layerId = "022D8624-EE6A-4706-99F1-8B0D7C62E556";
paths = (
{
closed = 1;
nodes = (
"713 0 LINE",
"713 709 LINE",
"1241 1462 LINE",
"1020 1462 LINE",
"713 979 LINE",
"713 1462 LINE",
"528 1462 LINE",
"528 979 LINE",
"221 1462 LINE",
"0 1462 LINE",
"528 709 LINE",
"528 0 LINE"
);
}
);
width = 1243;
}
);
note = uni16C9;
unicode = 16C9;
},
{
glyphname = uni16CA;
lastChange = "2016-11-10 14:49:34 +0000";
layers = (
{
layerId = "022D8624-EE6A-4706-99F1-8B0D7C62E556";
paths = (
{
closed = 1;
nodes = (
"666 0 LINE",
"324 369 LINE",
"324 377 LINE",
"686 745 LINE",
"686 756 LINE",
"324 1085 LINE",
"324 1094 LINE",
"707 1462 LINE",
"457 1462 LINE",
"78 1094 LINE",
"78 1085 LINE",
"436 754 LINE",
"436 745 LINE",
"78 377 LINE",
"78 369 LINE",
"416 0 LINE"
);
}
);
width = 780;
}
);
note = uni16CA;
unicode = 16CA;
},
{
glyphname = uni16CB;
lastChange = "2016-11-10 14:49:34 +0000";
layers = (
{
layerId = "022D8624-EE6A-4706-99F1-8B0D7C62E556";
paths = (
{
closed = 1;
nodes = (
"1137 0 LINE",
"1137 1085 LINE",
"952 1085 LINE",
"383 653 LINE",
"383 1462 LINE",
"199 1462 LINE",
"199 444 LINE",
"383 444 LINE",
"952 868 LINE",
"952 0 LINE"
);
}
);
width = 1337;
}
);
note = uni16CB;
unicode = 16CB;
},
{
glyphname = uni16CC;
lastChange = "2016-11-10 14:40:32 +0000";
layers = (
{
layerId = "022D8624-EE6A-4706-99F1-8B0D7C62E556";
paths = (
{
closed = 1;
nodes = (
"383 942 LINE",
"383 1462 LINE",
"199 1462 LINE",
"199 942 LINE"
);
}
);
width = 584;
}
);
note = uni16CC;
unicode = 16CC;
},
{
glyphname = uni16CD;
lastChange = "2016-11-10 14:49:34 +0000";
layers = (
{
layerId = "022D8624-EE6A-4706-99F1-8B0D7C62E556";
paths = (
{
closed = 1;
nodes = (
"389 537 OFFCURVE",
"438 553 OFFCURVE",
"474 589 CURVE SMOOTH",
"510 625 OFFCURVE",
"532 679 OFFCURVE",
"532 758 CURVE SMOOTH",
"532 870 OFFCURVE",
"487 934 OFFCURVE",
"424 963 CURVE",
"424 1462 LINE",
"240 1462 LINE",
"240 963 LINE",
"180 934 OFFCURVE",
"137 871 OFFCURVE",
"137 758 CURVE SMOOTH",
"137 679 OFFCURVE",
"158 625 OFFCURVE",
"194 589 CURVE SMOOTH",
"229 553 OFFCURVE",
"278 537 OFFCURVE",
"334 537 CURVE SMOOTH"
);
}
);
width = 670;
}
);
note = uni16CD;
unicode = 16CD;
},
{
glyphname = uni16CE;
lastChange = "2016-11-10 14:49:34 +0000";
layers = (
{
layerId = "022D8624-EE6A-4706-99F1-8B0D7C62E556";
paths = (
{
closed = 1;
nodes = (
"623 555 LINE",
"979 750 LINE",
"918 877 LINE",
"623 719 LINE",
"623 1462 LINE",
"438 1462 LINE",
"438 725 LINE",
"166 887 LINE",
"92 758 LINE",
"438 555 LINE"
);
}
);
width = 1063;
}
);
note = uni16CE;
unicode = 16CE;
},
{
glyphname = uni16CF;
lastChange = "2016-11-10 14:49:34 +0000";
layers = (
{
layerId = "022D8624-EE6A-4706-99F1-8B0D7C62E556";
paths = (
{
closed = 1;
nodes = (
"623 0 LINE",
"623 1294 LINE",
"895 1137 LINE",
"967 1260 LINE",
"623 1462 LINE",
"438 1462 LINE",
"82 1272 LINE",
"156 1149 LINE",
"438 1300 LINE",
"438 0 LINE"
);
}
);
width = 1051;
}
);
note = uni16CF;
unicode = 16CF;
},
{
glyphname = uni16D0;
lastChange = "2016-11-10 14:49:34 +0000";
layers = (
{
layerId = "022D8624-EE6A-4706-99F1-8B0D7C62E556";
paths = (
{
closed = 1;
nodes = (
"625 0 LINE",
"625 1462 LINE",
"438 1462 LINE",
"82 1272 LINE",
"156 1145 LINE",
"434 1296 LINE",
"434 0 LINE"
);
}
);
width = 825;
}
);
note = uni16D0;
unicode = 16D0;
},
{
glyphname = uni16D1;
lastChange = "2016-11-10 14:49:34 +0000";
layers = (
{
layerId = "022D8624-EE6A-4706-99F1-8B0D7C62E556";
paths = (
{
closed = 1;
nodes = (
"623 0 LINE",
"623 553 LINE",
"687 582 OFFCURVE",
"731 646 OFFCURVE",
"731 758 CURVE SMOOTH",
"731 870 OFFCURVE",
"686 934 OFFCURVE",
"623 963 CURVE",
"623 1462 LINE",
"438 1462 LINE",
"82 1272 LINE",
"156 1149 LINE",
"438 1300 LINE",
"438 963 LINE",
"379 934 OFFCURVE",
"336 870 OFFCURVE",
"336 758 CURVE SMOOTH",
"336 649 OFFCURVE",
"377 586 OFFCURVE",
"438 555 CURVE",
"438 0 LINE"
);
}
);
width = 868;
}
);
note = uni16D1;
unicode = 16D1;
},
{
glyphname = uni16D2;
lastChange = "2016-11-10 14:49:34 +0000";
layers = (
{
layerId = "022D8624-EE6A-4706-99F1-8B0D7C62E556";
paths = (
{
closed = 1;
nodes = (
"383 0 LINE",
"950 360 LINE",
"950 532 LINE",
"604 739 LINE",
"950 954 LINE",
"950 1126 LINE",
"383 1462 LINE",
"199 1462 LINE",
"199 0 LINE"
);
},
{
closed = 1;
nodes = (
"383 684 LINE",
"778 449 LINE",
"383 197 LINE"
);
},
{
closed = 1;
nodes = (
"383 1278 LINE",
"778 1042 LINE",
"383 791 LINE"
);
}
);
width = 1042;
}
);
note = uni16D2;
unicode = 16D2;
},
{
glyphname = uni16D3;
lastChange = "2016-11-10 14:49:34 +0000";
layers = (
{
layerId = "022D8624-EE6A-4706-99F1-8B0D7C62E556";
paths = (
{
closed = 1;
nodes = (
"383 0 LINE",
"383 573 LINE",
"739 768 LINE",
"678 895 LINE",
"383 737 LINE",
"383 903 LINE",
"739 1098 LINE",
"678 1225 LINE",
"383 1067 LINE",
"383 1462 LINE",
"199 1462 LINE",
"199 0 LINE"
);
}
);
width = 823;
}
);
note = uni16D3;
unicode = 16D3;
},
{
glyphname = uni16D4;
lastChange = "2016-11-10 14:49:34 +0000";
layers = (
{
layerId = "022D8624-EE6A-4706-99F1-8B0D7C62E556";
paths = (
{
closed = 1;
nodes = (
"508 0 LINE SMOOTH",
"664 0 OFFCURVE",
"791 37 OFFCURVE",
"879 108 CURVE SMOOTH",
"967 179 OFFCURVE",
"1016 283 OFFCURVE",
"1016 416 CURVE SMOOTH",
"1016 523 OFFCURVE",
"980 601 OFFCURVE",
"921 657 CURVE SMOOTH",
"862 712 OFFCURVE",
"780 744 OFFCURVE",
"688 760 CURVE",
"688 770 LINE",
"777 786 OFFCURVE",
"857 815 OFFCURVE",
"914 867 CURVE SMOOTH",
"970 919 OFFCURVE",
"1004 994 OFFCURVE",
"1004 1102 CURVE SMOOTH",
"1004 1223 OFFCURVE",
"955 1314 OFFCURVE",
"869 1374 CURVE SMOOTH",
"783 1433 OFFCURVE",
"660 1462 OFFCURVE",
"512 1462 CURVE SMOOTH",
"199 1462 LINE",
"199 0 LINE"
);
},
{
closed = 1;
nodes = (
"627 340 OFFCURVE",
"659 367 OFFCURVE",
"659 424 CURVE SMOOTH",
"659 484 OFFCURVE",
"627 508 OFFCURVE",
"584 508 CURVE SMOOTH",
"539 508 OFFCURVE",
"506 484 OFFCURVE",
"506 424 CURVE SMOOTH",
"506 367 OFFCURVE",
"539 340 OFFCURVE",
"584 340 CURVE SMOOTH"
);
},
{
closed = 1;
nodes = (
"383 690 LINE",
"469 690 LINE SMOOTH",
"598 690 OFFCURVE",
"686 660 OFFCURVE",
"742 612 CURVE SMOOTH",
"797 563 OFFCURVE",
"819 496 OFFCURVE",
"819 424 CURVE SMOOTH",
"819 348 OFFCURVE",
"797 281 OFFCURVE",
"743 233 CURVE SMOOTH",
"689 185 OFFCURVE",
"602 156 OFFCURVE",
"473 156 CURVE SMOOTH",
"383 156 LINE"
);
},
{
closed = 1;
nodes = (
"627 995 OFFCURVE",
"659 1022 OFFCURVE",
"659 1079 CURVE SMOOTH",
"659 1139 OFFCURVE",
"627 1163 OFFCURVE",
"584 1163 CURVE SMOOTH",
"539 1163 OFFCURVE",
"506 1139 OFFCURVE",
"506 1079 CURVE SMOOTH",
"506 1022 OFFCURVE",
"539 995 OFFCURVE",
"584 995 CURVE SMOOTH"
);
},
{
closed = 1;
nodes = (
"383 1305 LINE",
"467 1305 LINE SMOOTH",
"598 1305 OFFCURVE",
"685 1284 OFFCURVE",
"739 1245 CURVE SMOOTH",
"793 1206 OFFCURVE",
"813 1151 OFFCURVE",
"813 1083 CURVE SMOOTH",
"813 1012 OFFCURVE",
"792 952 OFFCURVE",
"740 909 CURVE SMOOTH",
"687 865 OFFCURVE",
"600 840 OFFCURVE",
"471 840 CURVE SMOOTH",
"383 840 LINE"
);
}
);
width = 1126;
}
);
note = uni16D4;
unicode = 16D4;
},
{
glyphname = uni16D5;
lastChange = "2016-11-10 14:49:34 +0000";
layers = (
{
layerId = "022D8624-EE6A-4706-99F1-8B0D7C62E556";
paths = (
{
closed = 1;
nodes = (
"383 0 LINE",
"383 741 LINE",
"829 0 LINE",
"1049 0 LINE",
"563 752 LINE",
"1032 1462 LINE",
"823 1462 LINE",
"383 754 LINE",
"383 1462 LINE",
"199 1462 LINE",
"199 0 LINE"
);
}
);
width = 1059;
}
);
note = uni16D5;
unicode = 16D5;
},
{
glyphname = uni16D6;
lastChange = "2016-11-10 14:49:34 +0000";
layers = (
{
layerId = "022D8624-EE6A-4706-99F1-8B0D7C62E556";
paths = (
{
closed = 1;
nodes = (
"383 0 LINE",
"383 1257 LINE",
"743 1006 LINE",
"1122 1260 LINE",
"1122 0 LINE",
"1307 0 LINE",
"1307 1462 LINE",
"1122 1462 LINE",
"743 1204 LINE",
"383 1462 LINE",
"199 1462 LINE",
"199 0 LINE"
);
}
);
width = 1507;
}
);
note = uni16D6;
unicode = 16D6;
},
{
glyphname = uni16D7;
lastChange = "2016-11-10 14:49:34 +0000";
layers = (
{
layerId = "022D8624-EE6A-4706-99F1-8B0D7C62E556";
paths = (
{
closed = 1;
nodes = (
"377 0 LINE",
"377 500 LINE",
"782 877 LINE",
"1186 502 LINE",
"1186 0 LINE",
"1364 0 LINE",
"1364 1462 LINE",
"1186 1462 LINE",
"780 1085 LINE",
"377 1462 LINE",
"199 1462 LINE",
"199 0 LINE"
);
},
{
closed = 1;
nodes = (
"377 1249 LINE",
"668 983 LINE",
"377 711 LINE"
);
},
{
closed = 1;
nodes = (
"895 981 LINE",
"1186 1251 LINE",
"1186 711 LINE"
);
}
);
width = 1544;
}
);
note = uni16D7;
unicode = 16D7;
},
{
glyphname = uni16D8;
lastChange = "2016-11-10 14:40:32 +0000";
layers = (
{
layerId = "022D8624-EE6A-4706-99F1-8B0D7C62E556";
paths = (
{
closed = 1;
nodes = (
"776 0 LINE",
"776 901 LINE",
"896 913 OFFCURVE",
"1017 951 OFFCURVE",
"1116 1038 CURVE SMOOTH",
"1215 1125 OFFCURVE",
"1293 1259 OFFCURVE",
"1325 1462 CURVE",
"1130 1462 LINE",
"1109 1354 OFFCURVE",
"1075 1262 OFFCURVE",
"1020 1194 CURVE SMOOTH",
"964 1125 OFFCURVE",
"887 1079 OFFCURVE",
"776 1063 CURVE",
"776 1462 LINE",
"580 1462 LINE",
"580 1063 LINE",
"469 1079 OFFCURVE",
"391 1125 OFFCURVE",
"336 1194 CURVE SMOOTH",
"280 1262 OFFCURVE",
"246 1354 OFFCURVE",
"225 1462 CURVE",
"31 1462 LINE",
"63 1259 OFFCURVE",
"141 1125 OFFCURVE",
"240 1038 CURVE SMOOTH",
"339 951 OFFCURVE",
"460 913 OFFCURVE",
"580 901 CURVE",
"580 0 LINE"
);
}
);
width = 1356;
}
);
note = uni16D8;
unicode = 16D8;
},
{
glyphname = uni16D9;
lastChange = "2016-11-10 14:40:32 +0000";
layers = (
{
layerId = "022D8624-EE6A-4706-99F1-8B0D7C62E556";
paths = (
{
closed = 1;
nodes = (
"449 0 LINE",
"449 1063 LINE",
"513 1092 OFFCURVE",
"557 1154 OFFCURVE",
"557 1266 CURVE SMOOTH",
"557 1345 OFFCURVE",
"535 1399 OFFCURVE",
"499 1435 CURVE SMOOTH",
"463 1470 OFFCURVE",
"414 1485 OFFCURVE",
"358 1485 CURVE SMOOTH",
"303 1485 OFFCURVE",
"254 1470 OFFCURVE",
"219 1435 CURVE SMOOTH",
"183 1399 OFFCURVE",
"162 1345 OFFCURVE",
"162 1266 CURVE SMOOTH",
"162 1154 OFFCURVE",
"200 1092 OFFCURVE",
"264 1063 CURVE",
"264 0 LINE"
);
}
);
width = 721;
}
);
note = uni16D9;
unicode = 16D9;
},
{
glyphname = uni16DA;
lastChange = "2016-11-10 14:40:32 +0000";
layers = (
{
layerId = "022D8624-EE6A-4706-99F1-8B0D7C62E556";
paths = (
{
closed = 1;
nodes = (
"389 0 LINE",
"389 1290 LINE",
"657 1133 LINE",
"729 1260 LINE",
"385 1462 LINE",
"199 1462 LINE",
"199 0 LINE"
);
}
);
width = 813;
}
);
note = uni16DA;
unicode = 16DA;
},
{
glyphname = uni16DB;
lastChange = "2016-11-10 14:49:34 +0000";
layers = (
{
layerId = "022D8624-EE6A-4706-99F1-8B0D7C62E556";
paths = (
{
closed = 1;
nodes = (
"451 0 LINE",
"451 553 LINE",
"515 582 OFFCURVE",
"559 646 OFFCURVE",
"559 758 CURVE SMOOTH",
"559 870 OFFCURVE",
"514 934 OFFCURVE",
"451 963 CURVE",
"451 1294 LINE",
"723 1137 LINE",
"795 1260 LINE",
"451 1462 LINE",
"266 1462 LINE",
"266 963 LINE",
"207 934 OFFCURVE",
"164 870 OFFCURVE",
"164 758 CURVE SMOOTH",
"164 649 OFFCURVE",
"205 586 OFFCURVE",
"266 555 CURVE",
"266 0 LINE"
);
}
);
width = 879;
}
);
note = uni16DB;
unicode = 16DB;
},
{
glyphname = uni16DC;
lastChange = "2016-11-10 14:49:34 +0000";
layers = (
{
layerId = "022D8624-EE6A-4706-99F1-8B0D7C62E556";
paths = (
{
closed = 1;
nodes = (
"645 428 LINE",
"887 686 LINE",
"887 874 LINE",
"645 1110 LINE",
"440 1110 LINE",
"199 874 LINE",
"199 686 LINE",
"440 428 LINE"
);
},
{
closed = 1;
nodes = (
"334 770 LINE",
"334 782 LINE",
"512 956 LINE",
"573 956 LINE",
"752 782 LINE",
"752 770 LINE",
"573 582 LINE",
"512 582 LINE"
);
}
);
width = 1087;
}
);
note = uni16DC;
unicode = 16DC;
},
{
glyphname = uni16DD;
lastChange = "2016-11-10 14:49:34 +0000";
layers = (
{
layerId = "022D8624-EE6A-4706-99F1-8B0D7C62E556";
paths = (
{
closed = 1;
nodes = (
"319 0 LINE",
"600 262 LINE",
"883 0 LINE",
"1112 0 LINE",
"719 373 LINE",
"1130 758 LINE",
"719 1114 LINE",
"1114 1462 LINE",
"885 1462 LINE",
"600 1217 LINE",
"317 1462 LINE",
"88 1462 LINE",
"483 1114 LINE",
"72 758 LINE",
"483 373 LINE",
"90 0 LINE"
);
},
{
closed = 1;
nodes = (
"315 758 LINE",
"600 1010 LINE",
"887 758 LINE",
"600 485 LINE"
);
}
);
width = 1204;
}
);
note = uni16DD;
unicode = 16DD;
},
{
glyphname = uni16DE;
lastChange = "2016-11-10 14:49:34 +0000";
layers = (
{
layerId = "022D8624-EE6A-4706-99F1-8B0D7C62E556";
paths = (
{
closed = 1;
nodes = (
"369 0 LINE",
"750 594 LINE",
"1137 0 LINE",
"1296 0 LINE",
"1296 1462 LINE",
"1137 1462 LINE",
"750 866 LINE",
"369 1462 LINE",
"199 1462 LINE",
"199 0 LINE"
);
},
{
closed = 1;
nodes = (
"369 1184 LINE",
"377 1184 LINE",
"662 731 LINE",
"377 276 LINE",
"369 276 LINE"
);
},
{
closed = 1;
nodes = (
"838 731 LINE",
"1128 1196 LINE",
"1137 1196 LINE",
"1137 264 LINE",
"1128 264 LINE"
);
}
);
width = 1497;
}
);
note = uni16DE;
unicode = 16DE;
},
{
glyphname = uni16DF;
lastChange = "2016-11-10 14:49:34 +0000";
layers = (
{
layerId = "022D8624-EE6A-4706-99F1-8B0D7C62E556";
paths = (
{
closed = 1;
nodes = (
"301 0 LINE",
"596 358 LINE",
"891 0 LINE",
"1114 0 LINE",
"715 471 LINE",
"1114 944 LINE",
"688 1462 LINE",
"496 1462 LINE",
"78 944 LINE",
"477 471 LINE",
"78 0 LINE"
);
},
{
closed = 1;
nodes = (
"289 948 LINE",
"592 1327 LINE",
"903 948 LINE",
"596 586 LINE"
);
}
);
width = 1192;
}
);
note = uni16DF;
unicode = 16DF;
},
{
glyphname = uni16E0;
lastChange = "2016-11-10 14:49:34 +0000";
layers = (
{
layerId = "022D8624-EE6A-4706-99F1-8B0D7C62E556";
paths = (
{
closed = 1;
nodes = (
"739 0 LINE",
"739 1257 LINE",
"997 1030 LINE",
"1274 1268 LINE",
"1274 1462 LINE",
"995 1225 LINE",
"739 1462 LINE",
"555 1462 LINE",
"299 1225 LINE",
"20 1462 LINE",
"20 1278 LINE",
"297 1040 LINE",
"555 1278 LINE",
"555 0 LINE"
);
}
);
width = 1296;
}
);
note = uni16E0;
unicode = 16E0;
},
{
glyphname = uni16E1;
lastChange = "2016-11-10 14:49:34 +0000";
layers = (
{
layerId = "022D8624-EE6A-4706-99F1-8B0D7C62E556";
paths = (
{
closed = 1;
nodes = (
"608 0 LINE",
"608 301 LINE SMOOTH",
"608 358 OFFCURVE",
"606 426 OFFCURVE",
"603 481 CURVE SMOOTH",
"601 513 OFFCURVE",
"599 544 OFFCURVE",
"598 575 CURVE",
"885 383 LINE",
"967 514 LINE",
"664 717 LINE",
"967 922 LINE",
"885 1055 LINE",
"608 868 LINE",
"608 1462 LINE",
"438 1462 LINE",
"438 870 LINE",
"164 1055 LINE",
"82 922 LINE",
"385 717 LINE",
"82 514 LINE",
"164 383 LINE",
"451 575 LINE",
"448 544 OFFCURVE",
"446 513 OFFCURVE",
"444 481 CURVE SMOOTH",
"441 426 OFFCURVE",
"438 358 OFFCURVE",
"438 301 CURVE SMOOTH",
"438 0 LINE"
);
}
);
width = 1051;
}
);
note = uni16E1;
unicode = 16E1;
},
{
glyphname = uni16E2;
lastChange = "2016-11-10 14:49:34 +0000";
layers = (
{
layerId = "022D8624-EE6A-4706-99F1-8B0D7C62E556";
paths = (
{
closed = 1;
nodes = (
"299 238 LINE",
"555 0 LINE",
"739 0 LINE",
"739 1257 LINE",
"997 1030 LINE",
"1274 1268 LINE",
"1274 1462 LINE",
"995 1225 LINE",
"739 1462 LINE",
"555 1462 LINE",
"555 199 LINE",
"297 432 LINE",
"20 195 LINE",
"20 0 LINE"
);
}
);
width = 1296;
}
);
note = uni16E2;
unicode = 16E2;
},
{
glyphname = uni16E3;
lastChange = "2016-11-10 14:49:34 +0000";
layers = (
{
layerId = "022D8624-EE6A-4706-99F1-8B0D7C62E556";
paths = (
{
closed = 1;
nodes = (
"221 0 LINE",
"528 483 LINE",
"528 0 LINE",
"713 0 LINE",
"713 483 LINE",
"1020 0 LINE",
"1241 0 LINE",
"713 754 LINE",
"713 1462 LINE",
"528 1462 LINE",
"528 754 LINE",
"0 0 LINE"
);
}
);
width = 1243;
}
);
note = uni16E3;
unicode = 16E3;
},
{
glyphname = uni16E4;
lastChange = "2016-11-10 14:49:34 +0000";
layers = (
{
layerId = "022D8624-EE6A-4706-99F1-8B0D7C62E556";
paths = (
{
closed = 1;
nodes = (
"270 0 LINE",
"623 557 LINE",
"623 0 LINE",
"776 0 LINE",
"776 545 LINE",
"1128 0 LINE",
"1323 0 LINE",
"1102 328 LINE",
"1311 715 LINE",
"1311 739 LINE",
"1083 1169 LINE",
"1288 1462 LINE",
"1090 1462 LINE",
"776 983 LINE",
"776 1462 LINE",
"623 1462 LINE",
"623 987 LINE",
"311 1462 LINE",
"113 1462 LINE",
"315 1169 LINE",
"88 739 LINE",
"88 715 LINE",
"297 328 LINE",
"82 0 LINE"
);
},
{
closed = 1;
nodes = (
"246 723 LINE",
"246 731 LINE",
"401 1036 LINE",
"592 762 LINE",
"385 461 LINE"
);
},
{
closed = 1;
nodes = (
"803 766 LINE",
"991 1040 LINE",
"1153 731 LINE",
"1153 723 LINE",
"1014 461 LINE"
);
}
);
width = 1405;
}
);
note = uni16E4;
unicode = 16E4;
},
{
glyphname = uni16E5;
lastChange = "2016-11-10 14:49:34 +0000";
layers = (
{
layerId = "022D8624-EE6A-4706-99F1-8B0D7C62E556";
paths = (
{
closed = 1;
nodes = (
"369 0 LINE",
"750 264 LINE",
"1137 0 LINE",
"1296 0 LINE",
"1296 1462 LINE",
"1137 1462 LINE",
"750 1196 LINE",
"369 1462 LINE",
"199 1462 LINE",
"199 0 LINE"
);
},
{
closed = 1;
nodes = (
"369 528 LINE",
"631 348 LINE",
"369 168 LINE"
);
},
{
closed = 1;
nodes = (
"868 348 LINE",
"1137 535 LINE",
"1137 162 LINE"
);
},
{
closed = 1;
nodes = (
"369 696 LINE",
"369 766 LINE",
"750 1030 LINE",
"1137 766 LINE",
"1137 696 LINE",
"750 430 LINE"
);
},
{
closed = 1;
nodes = (
"369 1294 LINE",
"631 1114 LINE",
"369 934 LINE"
);
},
{
closed = 1;
nodes = (
"868 1114 LINE",
"1137 1300 LINE",
"1137 928 LINE"
);
}
);
width = 1497;
}
);
note = uni16E5;
unicode = 16E5;
},
{
glyphname = uni16E6;
lastChange = "2016-11-10 14:49:34 +0000";
layers = (
{
layerId = "022D8624-EE6A-4706-99F1-8B0D7C62E556";
paths = (
{
closed = 1;
nodes = (
"225 0 LINE",
"246 108 OFFCURVE",
"280 200 OFFCURVE",
"336 269 CURVE SMOOTH",
"391 338 OFFCURVE",
"469 384 OFFCURVE",
"580 399 CURVE",
"580 0 LINE",
"776 0 LINE",
"776 399 LINE",
"887 384 OFFCURVE",
"964 338 OFFCURVE",
"1020 269 CURVE SMOOTH",
"1075 200 OFFCURVE",
"1109 108 OFFCURVE",
"1130 0 CURVE",
"1325 0 LINE",
"1293 203 OFFCURVE",
"1215 337 OFFCURVE",
"1116 425 CURVE SMOOTH",
"1017 512 OFFCURVE",
"896 550 OFFCURVE",
"776 561 CURVE",
"776 1462 LINE",
"580 1462 LINE",
"580 561 LINE",
"460 550 OFFCURVE",
"339 512 OFFCURVE",
"240 425 CURVE SMOOTH",
"141 337 OFFCURVE",
"63 203 OFFCURVE",
"31 0 CURVE"
);
}
);
width = 1356;
}
);
note = uni16E6;
unicode = 16E6;
},
{
glyphname = uni16E7;
lastChange = "2016-11-10 14:40:32 +0000";
layers = (
{
layerId = "022D8624-EE6A-4706-99F1-8B0D7C62E556";
paths = (
{
closed = 1;
nodes = (
"383 0 LINE",
"383 555 LINE",
"199 555 LINE",
"199 0 LINE"
);
}
);
width = 584;
}
);
note = uni16E7;
unicode = 16E7;
},
{
glyphname = uni16E8;
lastChange = "2016-11-10 14:49:34 +0000";
layers = (
{
layerId = "022D8624-EE6A-4706-99F1-8B0D7C62E556";
paths = (
{
closed = 1;
nodes = (
"623 0 LINE",
"979 195 LINE",
"918 322 LINE",
"623 164 LINE",
"623 1290 LINE",
"905 1147 LINE",
"977 1272 LINE",
"623 1462 LINE",
"438 1462 LINE",
"82 1272 LINE",
"156 1149 LINE",
"438 1300 LINE",
"438 170 LINE",
"166 332 LINE",
"92 203 LINE",
"438 0 LINE"
);
}
);
width = 1063;
}
);
note = uni16E8;
unicode = 16E8;
},
{
glyphname = uni16E9;
lastChange = "2016-11-10 14:49:34 +0000";
layers = (
{
layerId = "022D8624-EE6A-4706-99F1-8B0D7C62E556";
paths = (
{
closed = 1;
nodes = (
"700 0 LINE",
"700 1462 LINE",
"516 1462 LINE",
"72 1065 LINE",
"72 893 LINE",
"516 467 LINE",
"516 0 LINE"
);
},
{
closed = 1;
nodes = (
"223 981 LINE",
"516 1257 LINE",
"516 688 LINE"
);
}
);
width = 899;
}
);
note = uni16E9;
unicode = 16E9;
},
{
glyphname = uni16EA;
lastChange = "2016-11-10 14:49:34 +0000";
layers = (
{
layerId = "022D8624-EE6A-4706-99F1-8B0D7C62E556";
paths = (
{
closed = 1;
nodes = (
"1251 0 LINE",
"1251 164 LINE",
"1544 164 LINE",
"1544 326 LINE",
"1251 326 LINE",
"1251 1085 LINE",
"1067 1085 LINE",
"498 653 LINE",
"498 1147 LINE",
"786 1147 LINE",
"786 1309 LINE",
"498 1309 LINE",
"498 1462 LINE",
"313 1462 LINE",
"313 1309 LINE",
"20 1309 LINE",
"20 1147 LINE",
"313 1147 LINE",
"313 449 LINE",
"498 449 LINE",
"1067 872 LINE",
"1067 326 LINE",
"778 326 LINE",
"778 164 LINE",
"1067 164 LINE",
"1067 0 LINE"
);
}
);
width = 1567;
}
);
note = uni16EA;
unicode = 16EA;
},
{
glyphname = uni16EB;
lastChange = "2016-11-10 14:49:34 +0000";
layers = (
{
layerId = "022D8624-EE6A-4706-99F1-8B0D7C62E556";
paths = (
{
closed = 1;
nodes = (
"426 545 OFFCURVE",
"472 560 OFFCURVE",
"505 593 CURVE SMOOTH",
"537 625 OFFCURVE",
"557 676 OFFCURVE",
"557 748 CURVE SMOOTH",
"557 821 OFFCURVE",
"537 872 OFFCURVE",
"505 904 CURVE SMOOTH",
"472 936 OFFCURVE",
"426 950 OFFCURVE",
"375 950 CURVE SMOOTH",
"323 950 OFFCURVE",
"278 936 OFFCURVE",
"246 904 CURVE SMOOTH",
"213 872 OFFCURVE",
"193 821 OFFCURVE",
"193 748 CURVE SMOOTH",
"193 676 OFFCURVE",
"213 625 OFFCURVE",
"246 593 CURVE SMOOTH",
"278 560 OFFCURVE",
"323 545 OFFCURVE",
"375 545 CURVE SMOOTH"
);
}
);
width = 750;
}
);
note = uni16EB;
unicode = 16EB;
},
{
glyphname = uni16EC;
lastChange = "2016-11-10 14:49:34 +0000";
layers = (
{
layerId = "022D8624-EE6A-4706-99F1-8B0D7C62E556";
paths = (
{
closed = 1;
nodes = (
"314 864 OFFCURVE",
"346 874 OFFCURVE",
"370 897 CURVE SMOOTH",
"393 920 OFFCURVE",
"408 955 OFFCURVE",
"408 1004 CURVE SMOOTH",
"408 1055 OFFCURVE",
"393 1090 OFFCURVE",
"370 1112 CURVE SMOOTH",
"346 1134 OFFCURVE",
"314 1143 OFFCURVE",
"279 1143 CURVE SMOOTH",
"244 1143 OFFCURVE",
"213 1134 OFFCURVE",
"190 1112 CURVE SMOOTH",
"167 1090 OFFCURVE",
"154 1055 OFFCURVE",
"154 1004 CURVE SMOOTH",
"154 955 OFFCURVE",
"167 920 OFFCURVE",
"190 897 CURVE SMOOTH",
"213 874 OFFCURVE",
"244 864 OFFCURVE",
"279 864 CURVE SMOOTH"
);
},
{
closed = 1;
nodes = (
"314 356 OFFCURVE",
"346 366 OFFCURVE",
"370 389 CURVE SMOOTH",
"393 412 OFFCURVE",
"408 447 OFFCURVE",
"408 496 CURVE SMOOTH",
"408 545 OFFCURVE",
"393 581 OFFCURVE",
"370 602 CURVE SMOOTH",
"346 623 OFFCURVE",
"314 633 OFFCURVE",
"279 633 CURVE SMOOTH",
"244 633 OFFCURVE",
"213 623 OFFCURVE",
"190 602 CURVE SMOOTH",
"167 581 OFFCURVE",
"154 545 OFFCURVE",
"154 496 CURVE SMOOTH",
"154 447 OFFCURVE",
"167 412 OFFCURVE",
"190 389 CURVE SMOOTH",
"213 366 OFFCURVE",
"244 356 OFFCURVE",
"279 356 CURVE SMOOTH"
);
}
);
width = 567;
}
);
note = uni16EC;
unicode = 16EC;
},
{
glyphname = uni16ED;
lastChange = "2016-11-10 14:49:34 +0000";
layers = (
{
layerId = "022D8624-EE6A-4706-99F1-8B0D7C62E556";
paths = (
{
closed = 1;
nodes = (
"631 410 LINE",
"535 707 LINE",
"846 633 LINE",
"846 893 LINE",
"535 813 LINE",
"631 1128 LINE",
"338 1128 LINE",
"424 813 LINE",
"119 893 LINE",
"119 633 LINE",
"424 707 LINE",
"338 410 LINE"
);
}
);
width = 948;
}
);
note = uni16ED;
unicode = 16ED;
},
{
glyphname = uni16EE;
lastChange = "2016-11-10 14:40:32 +0000";
layers = (
{
layerId = "022D8624-EE6A-4706-99F1-8B0D7C62E556";
paths = (
{
closed = 1;
nodes = (
"623 0 LINE",
"623 1294 LINE",
"895 1137 LINE",
"967 1260 LINE",
"623 1462 LINE",
"438 1462 LINE",
"438 791 LINE",
"82 600 LINE",
"156 477 LINE",
"438 629 LINE",
"438 0 LINE"
);
}
);
width = 1051;
}
);
note = uni16EE;
unicode = 16EE;
},
{
glyphname = uni16EF;
lastChange = "2016-11-10 14:49:34 +0000";
layers = (
{
layerId = "022D8624-EE6A-4706-99F1-8B0D7C62E556";
paths = (
{
closed = 1;
nodes = (
"225 0 LINE",
"246 108 OFFCURVE",
"280 200 OFFCURVE",
"336 269 CURVE SMOOTH",
"391 338 OFFCURVE",
"469 384 OFFCURVE",
"580 399 CURVE",
"580 0 LINE",
"776 0 LINE",
"776 399 LINE",
"887 384 OFFCURVE",
"964 338 OFFCURVE",
"1020 269 CURVE SMOOTH",
"1075 200 OFFCURVE",
"1109 108 OFFCURVE",
"1130 0 CURVE",
"1325 0 LINE",
"1293 203 OFFCURVE",
"1215 337 OFFCURVE",
"1116 425 CURVE SMOOTH",
"1017 512 OFFCURVE",
"896 550 OFFCURVE",
"776 561 CURVE",
"776 901 LINE",
"896 913 OFFCURVE",
"1017 951 OFFCURVE",
"1116 1038 CURVE SMOOTH",
"1215 1125 OFFCURVE",
"1293 1259 OFFCURVE",
"1325 1462 CURVE",
"1130 1462 LINE",
"1109 1354 OFFCURVE",
"1075 1262 OFFCURVE",
"1020 1194 CURVE SMOOTH",
"964 1125 OFFCURVE",
"887 1079 OFFCURVE",
"776 1063 CURVE",
"776 1462 LINE",
"580 1462 LINE",
"580 1063 LINE",
"469 1079 OFFCURVE",
"391 1125 OFFCURVE",
"336 1194 CURVE SMOOTH",
"280 1262 OFFCURVE",
"246 1354 OFFCURVE",
"225 1462 CURVE",
"31 1462 LINE",
"63 1259 OFFCURVE",
"141 1125 OFFCURVE",
"240 1038 CURVE SMOOTH",
"339 951 OFFCURVE",
"460 913 OFFCURVE",
"580 901 CURVE",
"580 561 LINE",
"460 550 OFFCURVE",
"339 512 OFFCURVE",
"240 425 CURVE SMOOTH",
"141 337 OFFCURVE",
"63 203 OFFCURVE",
"31 0 CURVE"
);
}
);
width = 1356;
}
);
note = uni16EF;
unicode = 16EF;
},
{
glyphname = uni16F0;
lastChange = "2016-11-10 14:49:34 +0000";
layers = (
{
layerId = "022D8624-EE6A-4706-99F1-8B0D7C62E556";
paths = (
{
closed = 1;
nodes = (
"709 0 LINE",
"709 272 LINE",
"830 276 OFFCURVE",
"935 323 OFFCURVE",
"1011 403 CURVE SMOOTH",
"1086 483 OFFCURVE",
"1130 594 OFFCURVE",
"1130 729 CURVE SMOOTH",
"1130 864 OFFCURVE",
"1087 975 OFFCURVE",
"1013 1054 CURVE SMOOTH",
"939 1133 OFFCURVE",
"833 1179 OFFCURVE",
"709 1184 CURVE",
"709 1462 LINE",
"524 1462 LINE",
"524 1184 LINE",
"399 1179 OFFCURVE",
"294 1133 OFFCURVE",
"220 1054 CURVE SMOOTH",
"146 975 OFFCURVE",
"102 864 OFFCURVE",
"102 729 CURVE SMOOTH",
"102 594 OFFCURVE",
"146 483 OFFCURVE",
"220 403 CURVE SMOOTH",
"294 323 OFFCURVE",
"397 276 OFFCURVE",
"520 272 CURVE",
"520 0 LINE"
);
},
{
closed = 1;
nodes = (
"452 431 OFFCURVE",
"395 461 OFFCURVE",
"355 511 CURVE SMOOTH",
"315 561 OFFCURVE",
"293 632 OFFCURVE",
"293 731 CURVE SMOOTH",
"293 920 OFFCURVE",
"379 1012 OFFCURVE",
"524 1032 CURVE",
"524 422 LINE"
);
},
{
closed = 1;
nodes = (
"709 1032 LINE",
"854 1012 OFFCURVE",
"940 920 OFFCURVE",
"940 731 CURVE SMOOTH",
"940 632 OFFCURVE",
"918 561 OFFCURVE",
"878 511 CURVE SMOOTH",
"838 461 OFFCURVE",
"781 431 OFFCURVE",
"709 422 CURVE"
);
}
